<svg width="50" height="50" viewBox="0 0 50 50" fill="none" xmlns="http://www.w3.org/2000/svg">
<circle cx="25" cy="25" r="25" fill="black"/>
<path d="M24.5339 16.1856C23.6854 14.9432 22.8165 13.8954 22.0328 13.1705C21.644 12.7928 21.2007 12.4743 20.7174 12.2254C20.3154 12.0346 19.6799 11.8492 19.0834 12.1887C18.4035 12.5796 18.2923 13.3448 18.2867 13.833C18.2812 14.3908 18.4053 15.0515 18.6073 15.7488C18.9704 17.0095 19.6373 18.5529 20.5248 20.1567L14.4554 26.1685C13.9423 26.6768 13.9571 27.3723 14.0516 27.8531C14.1535 28.3725 14.398 28.9414 14.7185 29.5102C15.3632 30.6609 16.423 32.0078 17.7309 33.3052C19.0408 34.6026 20.4006 35.6505 21.5622 36.2891C22.1366 36.6066 22.7109 36.8488 23.2352 36.9497C23.7206 37.0415 24.4209 37.058 24.9359 36.5497L35.3386 26.2456C35.5572 26.7172 35.5091 27.1852 35.4312 27.9688C35.3757 28.5046 35.3053 29.1891 35.296 30.1268V30.3526H35.3016C35.3404 30.8111 35.5517 31.2384 35.8937 31.5499C36.2356 31.8614 36.6832 32.0343 37.1477 32.0343C37.6123 32.0343 38.0599 31.8614 38.4018 31.5499C38.7438 31.2384 38.9551 30.8111 38.9939 30.3526H38.9995V30.248C39.0012 30.1763 38.9987 30.1046 38.9921 30.0332C38.8902 27.7394 37.6952 25.0087 35.5461 23.6214C35.4309 23.3489 35.3004 23.083 35.1552 22.825C34.5086 21.6762 33.4508 20.3292 32.1409 19.0318C30.8311 17.7344 29.4712 16.6847 28.3096 16.0461C27.7353 15.7305 27.161 15.4882 26.6367 15.3855C26.1513 15.2937 25.451 15.279 24.9359 15.7874L24.5339 16.1837V16.1856ZM20.7693 14.5101C21.4752 15.1634 22.3329 16.2021 23.1981 17.505L21.8939 18.7988C21.1862 17.4646 20.6711 16.2259 20.3877 15.2423C20.2635 14.8402 20.1821 14.4262 20.145 14.0073C20.3135 14.1193 20.5229 14.2826 20.7693 14.5101ZM21.4993 21.7863C22.4997 23.3498 23.5501 24.6619 24.4765 25.5171C24.5655 25.5992 24.67 25.6632 24.7841 25.7054C24.8981 25.7476 25.0194 25.7671 25.141 25.7628C25.2626 25.7586 25.3822 25.7306 25.4929 25.6806C25.6037 25.6305 25.7033 25.5594 25.7863 25.4712C25.8693 25.383 25.9339 25.2795 25.9765 25.1665C26.019 25.0536 26.0387 24.9335 26.0344 24.813C26.0301 24.6925 26.0019 24.574 25.9514 24.4644C25.9009 24.3547 25.829 24.2559 25.74 24.1738C24.9007 23.3994 23.8558 22.0891 22.8424 20.454L24.8581 18.4574C24.9582 18.6776 25.0712 18.9034 25.1972 19.1272C25.8437 20.2778 26.9016 21.6248 28.2114 22.9222C29.5194 24.2196 30.8793 25.2675 32.0427 25.9061C32.2688 26.0309 32.4948 26.1447 32.719 26.2419L23.7132 35.1642C23.6709 35.1606 23.6288 35.1545 23.5872 35.1458C23.3334 35.0963 22.9536 34.955 22.4608 34.6834C21.49 34.1475 20.2635 33.2153 19.0408 32.0041C17.818 30.793 16.8769 29.5818 16.3359 28.6165C16.0635 28.1302 15.919 27.754 15.8709 27.5026C15.8622 27.4614 15.856 27.4198 15.8523 27.3779L21.4993 21.7863V21.7863ZM26.8164 18.2354C26.6246 17.9121 26.4746 17.5662 26.3699 17.2059C26.62 17.2664 26.9702 17.4078 27.4111 17.6481C28.3819 18.184 29.6083 19.1162 30.8311 20.3274C31.6648 21.1532 32.3688 21.9808 32.9024 22.7314C32.2393 22.6864 31.5732 22.7427 30.9274 22.8984C30.4388 22.4953 29.9689 22.0704 29.5194 21.6248C28.2967 20.4136 27.3574 19.1988 26.8182 18.2354H26.8164Z" fill="#6857DB"/>
</svg>
